<?xml version="1.0" encoding="UTF-8"?>
<svg version="1.1" xmlns="http://www.w3.org/2000/svg" width="2000" height="2000">
<path d="M0 0 C0.84143555 0.43908691 1.68287109 0.87817383 2.54980469 1.33056641 C3.86911987 2.0145752 3.86911987 2.0145752 5.21508789 2.71240234 C6.16730225 3.24124023 7.1195166 3.77007813 8.10058594 4.31494141 C9.17904785 4.91314697 10.25750977 5.51135254 11.36865234 6.12768555 C12.53333329 6.77841292 13.69788065 7.42937944 14.86230469 8.08056641 C15.45871765 8.41281219 16.05513062 8.74505798 16.6696167 9.08737183 C26.05788112 14.31804767 35.36192962 19.68249699 44.62719727 25.12841797 C51.71814309 29.28794072 58.86634389 33.33319682 66.04980469 37.33056641 C75.19759908 42.42354017 84.26932781 47.63060807 93.29956055 52.92895508 C98.76709693 56.13344573 104.24768655 59.31251534 109.75292969 62.45166016 C110.67225533 62.97587555 110.67225533 62.97587555 111.6101532 63.51068115 C114.57055055 65.19757638 117.53260727 66.88146327 120.49633789 68.5625 C122.64634019 69.78549533 124.78056682 71.03680282 126.89501858 72.32028294 C129.358879 73.75945886 131.72315983 74.77894311 134.429986 75.67156124 C138.95724399 77.3738133 142.677509 79.3347518 145.54980469 83.33056641 C148.29672161 91.74078376 147.48418104 101.07979235 147.29078901 109.82259691 C147.22576565 113.50957688 147.24794893 117.19618308 147.25932312 120.88357544 C147.26717397 127.26538274 147.22027806 133.64488288 147.13575554 140.0261097 C147.01363687 149.25177191 146.97476379 158.4763231 146.95593566 167.70270591 C146.9231381 182.67263441 146.82340481 197.6413341 146.68139648 212.6105957 C146.54362601 227.14829374 146.43749281 241.68565756 146.3737793 256.22387695 C146.36983844 257.12059811 146.36589759 258.01731927 146.36183732 258.94121379 C146.34226119 263.43998143 146.3233057 267.93875143 146.30465877 272.43752301 C146.14925776 309.73607162 145.8851511 347.03322318 145.54980469 384.33056641 C142.02893841 386.2521097 138.50789288 388.17332433 134.98681641 390.09448242 C133.99610641 390.63517616 133.00539642 391.1758699 131.98466492 391.7329483 C124.89386278 395.60152019 117.79195016 399.4481498 110.67480469 403.26806641 C103.98355292 406.86050075 97.29820181 410.46228906 90.63574219 414.10791016 C88.97647705 415.01391968 88.97647705 415.01391968 87.28369141 415.93823242 C85.16624288 417.09542779 83.05060715 418.25594792 80.93701172 419.42016602 C79.9945459 419.93458252 79.05208008 420.44899902 78.08105469 420.97900391 C77.25154297 421.43452637 76.42203125 421.89004883 75.56738281 422.359375 C73.54980469 423.33056641 73.54980469 423.33056641 71.54980469 423.33056641 C71.54980469 326.31056641 71.54980469 229.29056641 71.54980469 129.33056641 C69.89980469 128.67056641 68.24980469 128.01056641 66.54980469 127.33056641 C64.88413261 126.37382763 63.24174234 125.37582456 61.62011719 124.34619141 C60.19735474 123.44864136 60.19735474 123.44864136 58.74584961 122.53295898 C57.73240479 121.88866943 56.71895996 121.24437988 55.67480469 120.58056641 C53.50757937 119.21350171 51.33959143 117.84764537 49.17089844 116.48291016 C48.06858887 115.7892334 46.9662793 115.09555664 45.83056641 114.38085938 C39.88723622 110.66660972 33.88920757 107.04268448 27.88671875 103.42504883 C23.22705963 100.60704528 18.6129772 97.74262643 14.06152344 94.75244141 C13.19438721 94.18678467 12.32725098 93.62112793 11.43383789 93.03833008 C9.80543977 91.97053063 8.18490514 90.89060477 6.57397461 89.79663086 C5.85185791 89.32443115 5.12974121 88.85223145 4.38574219 88.36572266 C3.76231934 87.94685791 3.13889648 87.52799316 2.49658203 87.09643555 C-0.22392767 86.02617734 -1.67991586 86.45564524 -4.45019531 87.33056641 C-7.09418053 88.669222 -7.09418053 88.669222 -9.78222656 90.40087891 C-10.81605469 91.04259033 -11.84988281 91.68430176 -12.91503906 92.34545898 C-14.01976562 93.04179443 -15.12449219 93.73812988 -16.26269531 94.45556641 C-17.42372944 95.17979834 -18.58519447 95.9033399 -19.74707031 96.6262207 C-22.7378182 98.48940435 -25.72299403 100.3613137 -28.706604 102.23590088 C-32.45774199 104.590949 -36.21586326 106.93484725 -39.97241211 109.28125 C-41.86702195 110.46582774 -43.76053848 111.65215724 -45.65258789 112.84082031 C-46.54486084 113.40075684 -47.43713379 113.96069336 -48.35644531 114.53759766 C-49.22695337 115.11650599 -50.09746143 115.69541433 -50.99434853 116.29186535 C-53.54537958 117.89988632 -56.10051052 119.02020122 -58.90772057 120.11451435 C-64.16060443 122.37126854 -68.80857211 124.82005941 -72.45019531 129.33056641 C-75.62746813 137.52580715 -74.82986714 146.81296531 -74.62391949 155.46292722 C-74.55811955 159.06282684 -74.59711614 162.66184254 -74.62297058 166.26203918 C-74.65354386 172.48964287 -74.61867756 178.71407273 -74.53853226 184.94119835 C-74.42276148 193.94379868 -74.40696468 202.94442749 -74.41505568 211.9476677 C-74.42549183 226.55605296 -74.3558096 241.16290254 -74.23535156 255.77075195 C-74.11855596 269.95537434 -74.03973707 284.13937532 -74.01171875 298.32446289 C-74.00997672 299.19974963 -74.0082347 300.07503637 -74.00643988 300.97684696 C-73.99793347 305.36818594 -73.9901708 309.75952587 -73.98277783 314.15086687 C-73.920546 350.54498424 -73.72812662 386.93748875 -73.45019531 423.33056641 C-77.97600453 421.87329418 -82.08573218 420.09317517 -86.26269531 417.83837891 C-86.90514191 417.49627884 -87.5475885 417.15417877 -88.20950317 416.80171204 C-90.29226171 415.69098784 -92.37130152 414.57350489 -94.45019531 413.45556641 C-95.89389184 412.68322981 -97.33774072 411.91117793 -98.78173828 411.1394043 C-103.00876737 408.87758542 -107.23045203 406.60594397 -111.45019531 404.33056641 C-112.57973633 403.72164551 -113.70927734 403.11272461 -114.87304688 402.48535156 C-117.7760727 400.91712948 -120.67665707 399.34456544 -123.57519531 397.76806641 C-124.38214844 397.32930176 -125.18910156 396.89053711 -126.02050781 396.43847656 C-130.96751558 393.73206462 -135.87259233 390.95655891 -140.76611328 388.1550293 C-141.41104233 387.78613838 -142.05597137 387.41724747 -142.72044373 387.03717804 C-144.29718558 386.1352503 -145.8737125 385.23294684 -147.45019531 384.33056641 C-147.74775598 346.1213694 -147.97682251 307.91234693 -148.1140446 269.70222569 C-148.13030377 265.19113033 -148.14712996 260.68003726 -148.16430664 256.16894531 C-148.16771668 255.27086875 -148.17112671 254.37279219 -148.17464008 253.44750118 C-148.23120662 238.9060996 -148.33370437 224.36536618 -148.45318166 209.82436097 C-148.57475601 194.9036803 -148.64695989 179.98334952 -148.67334574 165.06219387 C-148.69118368 155.85469613 -148.74751247 146.6490868 -148.85310938 137.44217044 C-148.92183475 131.12839403 -148.94259645 124.81559356 -148.92571322 118.50147027 C-148.91738495 114.85775492 -148.9301277 111.21733753 -148.99986649 107.57420921 C-149.38703859 86.3051075 -149.38703859 86.3051075 -146.20679832 81.42099762 C-142.80011089 78.09753308 -138.94652171 76.79059534 -134.45019531 75.33056641 C-132.28881212 74.13450765 -130.14808984 72.89954921 -128.04003906 71.61181641 C-125.82381964 70.34924091 -123.60632639 69.08889926 -121.38769531 67.83056641 C-120.17368596 67.13957263 -118.95982228 66.44832287 -117.74609375 65.75683594 C-115.23448491 64.32625684 -112.7222697 62.8967527 -110.20947266 61.46826172 C-104.20297583 58.05333162 -98.20064122 54.63111591 -92.20019531 51.20556641 C-91.61760956 50.87306885 -91.0350238 50.54057129 -90.43478394 50.19799805 C-81.43383565 45.05896365 -72.47153791 39.85626066 -63.52734375 34.61914062 C-58.22426322 31.51851382 -52.90972805 28.4392711 -47.57519531 25.39306641 C-46.99052994 25.05918915 -46.40586456 24.72531189 -45.80348206 24.38131714 C-42.84561018 22.69360292 -39.88549958 21.00993956 -36.92260742 19.33105469 C-31.07117749 16.00967741 -25.26342607 12.63491017 -19.51660156 9.13525391 C-17.87208008 8.14332031 -17.87208008 8.14332031 -16.19433594 7.13134766 C-14.1199311 5.87575332 -12.0542794 4.60554711 -9.99902344 3.31884766 C-9.07669922 2.76326172 -8.154375 2.20767578 -7.20410156 1.63525391 C-6.40302979 1.14009277 -5.60195801 0.64493164 -4.77661133 0.13476562 C-2.45019531 -0.66943359 -2.45019531 -0.66943359 0 0 Z " fill="#FFFFFF" transform="translate(283.4501953125,747.66943359375)"/>
<path d="M0 0 C23 0 23 0 30.75 7.625 C32.68066406 10.17431641 32.68066406 10.17431641 34.015625 12.3515625 C36.6229983 16.45005878 39.4484888 20.22627376 42.5 24 C43.3827835 25.12921423 44.26427322 26.25944098 45.14453125 27.390625 C49.01625329 32.31802098 53.02395911 37.13383308 57.01733398 41.96264648 C60.68384643 46.39712075 64.31102259 50.85818335 67.890625 55.36328125 C70.67525684 58.84407105 73.49574972 62.29518783 76.3125 65.75 C80.40577197 70.77350767 84.45381992 75.82669754 88.4375 80.9375 C93.11719805 86.93839292 97.94358482 92.80963399 102.79736328 98.67016602 C106.99662378 103.75162894 111.10038595 108.89828486 115.15478516 114.09570312 C120.95304214 121.52127562 126.9690231 128.76282772 133 136 C133.495 68.68 133.495 68.68 134 0 C142.91 0 151.82 0 161 0 C161 62.04 161 124.08 161 188 C139 188 139 188 133.8125 183.875 C132.49559036 181.94734966 131.22811086 179.98540437 130 178 C128.679109 176.254628 127.31270253 174.55243658 125.9387207 172.84863281 C124.49756327 171.05947486 123.08589655 169.25030493 121.6796875 167.43359375 C118.66511049 163.55572233 115.55711938 159.75852374 112.4375 155.96484375 C105.37601345 147.37563175 98.34615347 138.76222318 91.5 130 C85.4406255 122.24581138 79.22267669 114.62332608 73 107 C66.32133822 98.81805209 59.67146553 90.6212228 53.17016602 82.29736328 C49.09943323 77.09763532 44.94204689 71.97053092 40.765625 66.85546875 C36.47392786 61.59786534 32.24057163 56.30071454 28 51 C27.67 96.21 27.34 141.42 27 188 C18.09 188 9.18 188 0 188 C0 125.96 0 63.92 0 0 Z " fill="#FFFFFF" transform="translate(520,810)"/>
<path d="M0 0 C111.27218935 0 111.27218935 0 133 18 C133.64453125 18.51949219 134.2890625 19.03898438 134.953125 19.57421875 C145.52717931 29.02894749 151.10700836 43.70096604 152.20263672 57.56396484 C153.25344471 78.22486923 148.61756584 95.1415689 135 111 C127.98403476 117.08814814 120.63781107 121.61629054 112 125 C112.63164063 125.85078125 113.26328125 126.7015625 113.9140625 127.578125 C121.16687393 137.38685972 128.18736679 147.34712309 135.15771484 157.35791016 C137.05509141 160.07900865 138.95826912 162.79596109 140.86328125 165.51171875 C141.49322998 166.40995361 142.12317871 167.30818848 142.7722168 168.23364258 C143.97515418 169.94856939 145.17842269 171.663264 146.38208008 173.37768555 C147.9265262 175.58159902 149.46473539 177.78968451 151 180 C151.4237793 180.60360352 151.84755859 181.20720703 152.28417969 181.82910156 C155 185.76835013 155 185.76835013 155 188 C130.17913588 191.6237492 130.17913588 191.6237492 122.234375 186.06494141 C117.33455525 180.76826125 114.02014518 174.51021257 110.70605469 168.14306641 C108.07141217 163.28926164 104.8643057 158.90034779 101.625 154.4375 C100.57303831 152.93793638 99.52353094 151.43664782 98.4765625 149.93359375 C97.91211426 149.18207031 97.34766602 148.43054688 96.76611328 147.65625 C95.33482402 145.50357828 94.39207096 143.6719676 93.38623047 141.328125 C91.31180575 137.00795122 89.20075053 133.49729658 85 131 C75.61195412 128.6262341 65.43171131 129.70276023 55.875 130.125 C42.076875 130.558125 42.076875 130.558125 28 131 C28 149.81 28 168.62 28 188 C18.76 188 9.52 188 0 188 C0 125.96 0 63.92 0 0 Z M28 24 C28 51.39 28 78.78 28 107 C41.6125 107.12375 41.6125 107.12375 55.5 107.25 C58.33013672 107.28641602 61.16027344 107.32283203 64.07617188 107.36035156 C81.7148004 107.49299295 99.49395283 107.62405052 113.2421875 94.9296875 C121.54561851 86.20043952 124.37979984 76.96100317 125 65 C124.50176718 53.0296371 121.2747274 43.05247219 112.33984375 34.81640625 C95.55245605 21.78446088 74.04525823 23.60772232 54 23.8125 C41.13 23.9053125 41.13 23.9053125 28 24 Z " fill="#FFFFFF" transform="translate(1122,810)"/>
<path d="M0 0 C9.24 0 18.48 0 28 0 C29.10214844 2.45824219 30.20429687 4.91648437 31.33984375 7.44921875 C39.02883142 24.58342484 46.75439862 41.69836932 54.625 58.75 C60.14361416 70.70628195 65.55674588 82.7033135 70.875 94.75 C76.65292455 107.83664591 82.59076697 120.84210188 88.625 133.8125 C100.12220898 158.53984745 100.12220898 158.53984745 105.25970459 169.8374939 C105.87261766 171.18349551 106.48753098 172.52858829 107.10455322 173.87271118 C107.94365296 175.70170766 108.77479026 177.53435097 109.60546875 179.3671875 C110.07106201 180.38925293 110.53665527 181.41131836 111.01635742 182.46435547 C112 185 112 185 112 188 C102.43 188 92.86 188 83 188 C68.92285156 156.32641602 68.92285156 156.32641602 67.9786377 154.19412231 C67.28269613 152.63380953 66.57825688 151.07727489 65.86804199 149.52340698 C65.50134399 148.71638336 65.134646 147.90935974 64.75683594 147.07788086 C64.42069275 146.34476181 64.08454956 145.61164276 63.73822021 144.85630798 C63 143 63 143 63 141 C30.33 141 -2.34 141 -36 141 C-36.66 142.98 -37.32 144.96 -38 147 C-38.60454592 148.49068606 -39.23032062 149.97298056 -39.87939453 151.44482422 C-40.239617 152.26522186 -40.59983948 153.08561951 -40.97097778 153.93087769 C-41.35438324 154.79673492 -41.7377887 155.66259216 -42.1328125 156.5546875 C-42.52951141 157.45623566 -42.92621033 158.35778381 -43.33493042 159.28665161 C-44.59578372 162.15054502 -45.86033522 165.01278796 -47.125 167.875 C-47.98331796 169.8228087 -48.84139356 171.77072423 -49.69921875 173.71875 C-51.79622377 178.48061441 -53.89822684 183.24022685 -56 188 C-65.57 188 -75.14 188 -85 188 C-83.47100843 183.41302528 -81.78749982 179.13963872 -79.76171875 174.77734375 C-79.44509277 174.08858154 -79.1284668 173.39981934 -78.80224609 172.69018555 C-78.12169082 171.21032927 -77.4397955 169.73108864 -76.75668335 168.25241089 C-74.92472054 164.28599048 -73.10348796 160.31464516 -71.28125 156.34375 C-70.91343918 155.54283432 -70.54562836 154.74191864 -70.16667175 153.91673279 C-66.96619773 146.94166734 -63.81654963 139.94492964 -60.6875 132.9375 C-55.38301849 121.07022957 -50.04455352 109.21863114 -44.6875 97.375 C-44.28242218 96.47938354 -43.87734436 95.58376709 -43.45999146 94.66101074 C-37.55227416 81.6031296 -31.60995835 68.56143427 -25.63735962 55.53311157 C-22.17071931 47.97032933 -18.720026 40.40133406 -15.328125 32.8046875 C-15.03364471 32.14541763 -14.73916443 31.48614777 -14.4357605 30.80690002 C-13.06423313 27.73411949 -11.69667347 24.65969682 -10.33447266 21.58276367 C-9.85026855 20.49455322 -9.36606445 19.40634277 -8.8671875 18.28515625 C-8.45581543 17.35582275 -8.04444336 16.42648926 -7.62060547 15.46899414 C-5.18768093 10.26118685 -2.57061777 5.14123554 0 0 Z M13 29 C3.29989843 50.77558235 -6.39243074 72.55484405 -16.00128174 94.37088013 C-16.79033642 96.16130549 -17.58049292 97.9512457 -18.37176514 99.74069214 C-19.47360779 102.23332464 -20.57134842 104.72772269 -21.66796875 107.22265625 C-22.15563469 108.32276535 -22.15563469 108.32276535 -22.65315247 109.44509888 C-24.05151811 112.63800409 -25.15120651 115.60482605 -26 119 C0.07 119 26.14 119 53 119 C51.31138334 113.92118569 51.31138334 113.92118569 49.31445312 109.0222168 C48.99167892 108.29267792 48.66890472 107.56313904 48.33634949 106.81149292 C47.81407524 105.64216721 47.81407524 105.64216721 47.28125 104.44921875 C46.91070999 103.61343292 46.54016998 102.77764709 46.15840149 101.91653442 C45.35830504 100.11258079 44.55697813 98.30917249 43.75454712 96.5062561 C41.61623488 91.70182861 39.48665145 86.89353065 37.35546875 82.0859375 C36.91643723 81.09630508 36.4774057 80.10667267 36.02507019 79.08705139 C31.25954229 68.34115741 26.53389434 57.57784071 21.8125 46.8125 C21.02084811 45.00805016 20.22918184 43.20360663 19.4375 41.39916992 C17.62444282 37.26635744 15.81201094 33.1332713 14 29 C13.67 29 13.34 29 13 29 Z " fill="#FFFFFF" transform="translate(1373,810)"/>
<path d="M0 0 C9.24 0 18.48 0 28 0 C29.54850208 3.31307421 31.09645262 6.62632526 32.640625 9.94140625 C34.35403333 13.61840429 36.07462149 17.29198125 37.796875 20.96484375 C44.2333243 34.72556384 50.48857399 48.55314597 56.62399292 62.45028687 C62.49701078 75.7406214 68.57271025 88.92980243 74.71157837 102.09912109 C80.71045031 114.97501446 86.56177179 127.907298 92.29003906 140.90570068 C97.62975102 153.01872411 103.15290425 165.035691 108.8371582 176.9909668 C109.66026489 178.73180542 109.66026489 178.73180542 110.5 180.5078125 C110.9846875 181.52504395 111.469375 182.54227539 111.96875 183.59033203 C113 186 113 186 113 188 C103.43 188 93.86 188 84 188 C76.46194838 172.92389676 69.80359619 157.42148469 63 142 C30.33 141.67 -2.34 141.34 -36 141 C-36.33 142.65 -36.66 144.3 -37 146 C-37.46824903 147.27577309 -37.97983113 148.5365311 -38.53466797 149.77709961 C-38.84524139 150.47810287 -39.15581482 151.17910614 -39.47579956 151.90135193 C-39.81120758 152.64417923 -40.1466156 153.38700653 -40.4921875 154.15234375 C-40.83879425 154.93009659 -41.185401 155.70784943 -41.54251099 156.50917053 C-42.27482405 158.14999902 -43.00956759 159.78974465 -43.74658203 161.4284668 C-44.86865517 163.9233923 -45.98382501 166.42130753 -47.09765625 168.91992188 C-47.81209893 170.51840849 -48.52692999 172.11672158 -49.2421875 173.71484375 C-49.73922684 174.82604836 -49.73922684 174.82604836 -50.24630737 175.95970154 C-50.56318512 176.66385696 -50.88006287 177.36801239 -51.20654297 178.09350586 C-51.48110321 178.7046373 -51.75566345 179.31576874 -52.0385437 179.94541931 C-53.30669521 182.65539126 -54.66193003 185.32386006 -56 188 C-65.24 188 -74.48 188 -84 188 C-83.10510503 183.52552516 -81.76779469 179.94715654 -79.859375 175.875 C-79.54119812 175.18450562 -79.22302124 174.49401123 -78.89520264 173.78259277 C-78.20954398 172.2959705 -77.5214948 170.8104489 -76.83129883 169.32592773 C-74.98643567 165.35753502 -73.15885062 161.38117891 -71.328125 157.40625 C-70.9578418 156.60368774 -70.58755859 155.80112549 -70.20605469 154.97424316 C-66.91698108 147.83981287 -63.69838651 140.67558114 -60.5 133.5 C-55.72551367 122.80586635 -50.87924211 112.14662956 -46 101.5 C-40.66754462 89.86273272 -35.38308948 78.20635932 -30.15991211 66.51953125 C-25.15738456 55.33280093 -20.11282972 44.16522124 -15.0625 33 C-14.45165054 31.64876541 -14.45165054 31.64876541 -13.82846069 30.27023315 C-9.25827919 20.16160057 -4.66556836 10.06504635 0 0 Z M13 30 C4.7874364 48.42319003 -3.39748425 66.85837478 -11.51202393 85.32498169 C-12.28813137 87.09116108 -13.06461317 88.85717601 -13.8414917 90.62301636 C-14.94115071 93.12313063 -16.03918161 95.62395362 -17.13671875 98.125 C-17.45389359 98.84571182 -17.77106842 99.56642365 -18.09785461 100.30897522 C-20.81433985 106.50857663 -23.39513216 112.74831719 -26 119 C0.07 119 26.14 119 53 119 C52.28646769 115.43233847 51.74737567 113.09173043 50.3203125 109.92041016 C49.80123322 108.75637917 49.80123322 108.75637917 49.27166748 107.5688324 C48.89326721 106.73400833 48.51486694 105.89918427 48.125 105.0390625 C47.72806946 104.15191055 47.33113892 103.26475861 46.92218018 102.35072327 C46.06541229 100.4369702 45.20638321 98.52422816 44.34533691 96.61239624 C42.06888403 91.55740465 39.80879511 86.49510063 37.546875 81.43359375 C37.08569275 80.40275162 36.6245105 79.37190948 36.14935303 78.30982971 C31.4511091 67.79736784 26.84048941 57.24737201 22.25 46.6875 C21.87875 45.83399963 21.5075 44.98049927 21.125 44.10113525 C19.08104445 39.40174838 17.03931661 34.70140174 15 30 C14.34 30 13.68 30 13 30 Z " fill="#FFFFFF" transform="translate(1734,810)"/>
<path d="M0 0 C9.24 0 18.48 0 28 0 C29.1859375 2.62582031 30.371875 5.25164063 31.59375 7.95703125 C33.22877674 11.57569712 34.86434266 15.19411913 36.5 18.8125 C37.1440831 20.23746796 37.1440831 20.23746796 37.80117798 21.69122314 C43.88610308 35.1505939 50.01037758 48.59114047 56.17001343 62.01644897 C61.13662606 72.84876393 65.99700966 83.72477757 70.8125 94.625 C76.61242552 107.75266175 82.57148316 120.79990548 88.625 133.8125 C100.1303666 158.55778652 100.1303666 158.55778652 105.25970459 169.8374939 C105.87261766 171.18349551 106.48753098 172.52858829 107.10455322 173.87271118 C107.94365296 175.70170766 108.77479026 177.53435097 109.60546875 179.3671875 C110.07106201 180.38925293 110.53665527 181.41131836 111.01635742 182.46435547 C112 185 112 185 112 188 C102.43 188 92.86 188 83 188 C68.92285156 156.32641602 68.92285156 156.32641602 67.9786377 154.19412231 C67.28269613 152.63380953 66.57825688 151.07727489 65.86804199 149.52340698 C65.50134399 148.71638336 65.134646 147.90935974 64.75683594 147.07788086 C64.42069275 146.34476181 64.08454956 145.61164276 63.73822021 144.85630798 C63 143 63 143 63 141 C30.33 141 -2.34 141 -36 141 C-36.66 142.98 -37.32 144.96 -38 147 C-38.60454592 148.49068606 -39.23032062 149.97298056 -39.87939453 151.44482422 C-40.239617 152.26522186 -40.59983948 153.08561951 -40.97097778 153.93087769 C-41.35438324 154.79673492 -41.7377887 155.66259216 -42.1328125 156.5546875 C-42.52951141 157.45623566 -42.92621033 158.35778381 -43.33493042 159.28665161 C-44.59578372 162.15054502 -45.86033522 165.01278796 -47.125 167.875 C-47.98331796 169.8228087 -48.84139356 171.77072423 -49.69921875 173.71875 C-51.79622377 178.48061441 -53.89822684 183.24022685 -56 188 C-65.57 188 -75.14 188 -85 188 C-83.47100843 183.41302528 -81.78749982 179.13963872 -79.76171875 174.77734375 C-79.44509277 174.08858154 -79.1284668 173.39981934 -78.80224609 172.69018555 C-78.12169082 171.21032927 -77.4397955 169.73108864 -76.75668335 168.25241089 C-74.92472054 164.28599048 -73.10348796 160.31464516 -71.28125 156.34375 C-70.91343918 155.54283432 -70.54562836 154.74191864 -70.16667175 153.91673279 C-66.96619773 146.94166734 -63.81654963 139.94492964 -60.6875 132.9375 C-55.38301849 121.07022957 -50.04455352 109.21863114 -44.6875 97.375 C-44.28242218 96.47938354 -43.87734436 95.58376709 -43.45999146 94.66101074 C-37.55227416 81.6031296 -31.60995835 68.56143427 -25.63735962 55.53311157 C-22.17071931 47.97032933 -18.720026 40.40133406 -15.328125 32.8046875 C-15.03364471 32.14541763 -14.73916443 31.48614777 -14.4357605 30.80690002 C-13.06423313 27.73411949 -11.69667347 24.65969682 -10.33447266 21.58276367 C-9.85026855 20.49455322 -9.36606445 19.40634277 -8.8671875 18.28515625 C-8.45581543 17.35582275 -8.04444336 16.42648926 -7.62060547 15.46899414 C-5.18768093 10.26118685 -2.57061777 5.14123554 0 0 Z M13 29 C3.29989843 50.77558235 -6.39243074 72.55484405 -16.00128174 94.37088013 C-16.79033642 96.16130549 -17.58049292 97.9512457 -18.37176514 99.74069214 C-19.47360779 102.23332464 -20.57134842 104.72772269 -21.66796875 107.22265625 C-22.15563469 108.32276535 -22.15563469 108.32276535 -22.65315247 109.44509888 C-24.05151811 112.63800409 -25.15120651 115.60482605 -26 119 C0.07 119 26.14 119 53 119 C51.31138334 113.92118569 51.31138334 113.92118569 49.31445312 109.0222168 C48.99167892 108.29267792 48.66890472 107.56313904 48.33634949 106.81149292 C47.81407524 105.64216721 47.81407524 105.64216721 47.28125 104.44921875 C46.91070999 103.61343292 46.54016998 102.77764709 46.15840149 101.91653442 C45.35830504 100.11258079 44.55697813 98.30917249 43.75454712 96.5062561 C41.61623488 91.70182861 39.48665145 86.89353065 37.35546875 82.0859375 C36.91643723 81.09630508 36.4774057 80.10667267 36.02507019 79.08705139 C31.25954229 68.34115741 26.53389434 57.57784071 21.8125 46.8125 C21.02084811 45.00805016 20.22918184 43.20360663 19.4375 41.39916992 C17.62444282 37.26635744 15.81201094 33.1332713 14 29 C13.67 29 13.34 29 13 29 Z " fill="#FFFFFF" transform="translate(793,810)"/>
<path d="M0 0 C0.69804749 -0.00173218 1.39609497 -0.00346436 2.11529541 -0.00524902 C20.62310786 0.01481823 37.60933737 3.71959348 54.1875 12.0625 C55.0021875 12.46726562 55.816875 12.87203125 56.65625 13.2890625 C58.6875 14.4375 58.6875 14.4375 60.6875 16.4375 C60.3308229 21.29379596 58.00268952 25.81419091 56.125 30.25 C55.79564453 31.03826172 55.46628906 31.82652344 55.12695312 32.63867188 C54.31791094 34.57333796 53.50326148 36.50565753 52.6875 38.4375 C48.74675302 37.84106262 45.85761775 36.59875274 42.375 34.6875 C22.83235449 24.70010377 -1.72092251 20.53929486 -22.984375 27.28515625 C-25.18264643 28.22131667 -27.23213107 29.26448255 -29.3125 30.4375 C-30.02019531 30.79714844 -30.72789063 31.15679688 -31.45703125 31.52734375 C-37.71361299 34.97484797 -41.0667143 39.7001429 -43.3125 46.4375 C-43.97599963 53.77950412 -44.05867555 60.47126237 -39.3125 66.4375 C-31.01231398 74.48906294 -20.02186311 78.12402334 -9.0625 80.875 C-6.75776613 81.47638482 -4.45307941 82.07795037 -2.1484375 82.6796875 C0.13015535 83.26583101 2.40879945 83.85177534 4.6875 84.4375 C40.53636903 93.74256528 40.53636903 93.74256528 51.6875 102.4375 C52.698125 103.18 53.70875 103.9225 54.75 104.6875 C55.389375 105.265 56.02875 105.8425 56.6875 106.4375 C56.6875 107.0975 56.6875 107.7575 56.6875 108.4375 C57.3475 108.4375 58.0075 108.4375 58.6875 108.4375 C67.70324906 119.66916811 69.79219314 131.31861366 68.6875 145.4375 C66.51971611 158.56183503 59.9007104 170.67710362 49.05517578 178.63525391 C41.51447416 183.64441887 33.41847845 187.06658775 24.6875 189.4375 C23.9553125 189.65019531 23.223125 189.86289062 22.46875 190.08203125 C15.35025575 191.92805868 8.00304159 192.12172123 0.6875 192.4375 C-0.32957031 192.49164062 -1.34664062 192.54578125 -2.39453125 192.6015625 C-28.40281727 193.35147376 -56.02901993 186.1667751 -76.3125 169.4375 C-75.67361113 164.37709451 -73.44970723 160.15738466 -71.25 155.625 C-70.87294922 154.83673828 -70.49589844 154.04847656 -70.10742188 153.23632812 C-69.18079839 151.30097527 -68.24732533 149.36890451 -67.3125 147.4375 C-63.24386008 148.29736438 -60.37756582 150.2976136 -57 152.625 C-40.76970005 163.34935174 -22.75448795 167.74011686 -3.4375 167.875 C-2.4160791 167.88515137 -1.3946582 167.89530273 -0.34228516 167.90576172 C12.24682425 167.76133988 22.96153338 164.30821809 33.5625 157.625 C38.41436431 152.6304338 40.37880701 146.84497354 40.76953125 139.94921875 C40.55395358 133.34843574 38.60161934 128.88860036 33.875 124.25 C22.80749846 115.49981066 8.80186418 112.64863839 -4.625 109.4375 C-54.10765461 97.52741418 -54.10765461 97.52741418 -66.9375 77.25 C-73.10286981 66.58204194 -72.66620984 52.40574413 -70.66015625 40.59765625 C-68.60916591 33.19472544 -65.19877015 27.32608198 -60.3125 21.4375 C-59.81234375 20.81359375 -59.3121875 20.1896875 -58.796875 19.546875 C-44.38512445 3.38824559 -20.3754763 -0.00120647 0 0 Z " fill="#FFFFFF" transform="translate(1571.3125,807.5625)"/>
<path d="M0 0 C9.9 0 19.8 0 30 0 C37.15715828 15.87737412 44.24168186 31.77929842 51.1875 47.75 C51.71984253 48.97401016 51.71984253 48.97401016 52.26293945 50.2227478 C52.62154053 51.04731476 52.9801416 51.87188171 53.34960938 52.72143555 C54.08200582 54.40544726 54.81442786 56.08944784 55.546875 57.7734375 C55.91256592 58.61423355 56.27825684 59.4550296 56.6550293 60.32130432 C60.7283247 69.68169381 64.83122266 79.02904251 68.9375 88.375 C69.30408722 89.20945648 69.67067444 90.04391296 70.04837036 90.90365601 C71.91687895 95.15676682 73.78574637 99.40971982 75.65478516 103.66259766 C79.40702956 112.20127888 83.1554319 120.74164738 86.90432739 129.28179932 C88.83452727 133.67880804 90.76492428 138.07573021 92.6953125 142.47265625 C93.34130958 143.94409136 93.98730579 145.41552686 94.63330078 146.88696289 C95.08431152 147.91426514 95.53532227 148.94156738 96 150 C98.4546507 147.5453493 99.31943056 145.26480835 100.6953125 142.0703125 C100.9592984 141.46170883 101.2232843 140.85310516 101.49526978 140.22605896 C102.07125389 138.89703234 102.64512648 137.56708911 103.21716309 136.23635864 C104.78858611 132.58169608 106.37600551 128.93397538 107.9609375 125.28515625 C108.29266968 124.5202739 108.62440186 123.75539154 108.96618652 122.96733093 C112.50813173 114.80887767 116.12725667 106.68530932 119.75 98.5625 C125.14259256 86.4619358 130.49104826 74.34281304 135.80606079 62.20797729 C141.96919134 48.13808636 148.16063857 34.08130109 154.42214966 20.05487061 C155.17867138 18.35993963 155.93443672 16.66467083 156.68942261 14.96905518 C157.72933855 12.63453342 158.77233891 10.30141751 159.81640625 7.96875 C160.12591217 7.27296844 160.43541809 6.57718689 160.75430298 5.86032104 C162.8851897 1.1148103 162.8851897 1.1148103 164 0 C165.99964982 -0.08758003 168.0023611 -0.10696576 170.00390625 -0.09765625 C171.21884766 -0.09443359 172.43378906 -0.09121094 173.68554688 -0.08789062 C174.96494141 -0.07951172 176.24433594 -0.07113281 177.5625 -0.0625 C178.84576172 -0.05798828 180.12902344 -0.05347656 181.45117188 -0.04882812 C184.63416022 -0.03699545 187.81705762 -0.02051068 191 0 C190.32813039 4.67397481 188.50944875 8.74204584 186.59765625 13.015625 C186.24875839 13.80648499 185.89986053 14.59734497 185.54039001 15.41217041 C184.38569177 18.02684087 183.22404144 20.63836328 182.0625 23.25 C181.24621318 25.09546807 180.43046679 26.94117528 179.61523438 28.78710938 C177.92022835 32.62397876 176.22289479 36.45980575 174.52392578 40.29492188 C171.03269714 48.18041828 167.56972003 56.07827724 164.10678101 63.97622681 C162.2443859 68.2230135 160.37991459 72.46888846 158.515625 76.71484375 C157.95986031 77.98076607 157.95986031 77.98076607 157.39286804 79.27226257 C155.103149 84.48778719 152.81294212 89.70309737 150.52243042 94.91827393 C148.59814937 99.2996222 146.67406777 103.68105806 144.75 108.0625 C144.37429871 108.91797424 143.99859741 109.77344849 143.61151123 110.65484619 C139.1896014 120.72414678 134.77517456 130.79665399 130.37280273 140.87451172 C125.60003399 151.79999149 120.81809673 162.72140538 115.99066162 173.62286377 C115.20605775 175.39557125 114.42355981 177.16921034 113.64111328 178.94287109 C113.17560059 179.99168457 112.71008789 181.04049805 112.23046875 182.12109375 C111.82207764 183.0433374 111.41368652 183.96558105 110.99291992 184.91577148 C110 187 110 187 109 188 C107.00035018 188.08758003 104.9976389 188.10696576 102.99609375 188.09765625 C101.78115234 188.09443359 100.56621094 188.09121094 99.31445312 188.08789062 C98.03505859 188.07951172 96.75566406 188.07113281 95.4375 188.0625 C94.15423828 188.05798828 92.87097656 188.05347656 91.54882812 188.04882812 C88.36583978 188.03699545 85.18294238 188.02051068 82 188 C72.79931206 168.27404767 64.08482916 148.33958777 55.36279297 128.39892578 C51.9555458 120.61080719 48.53634974 112.82793786 45.11767578 105.04483032 C43.62103531 101.63713723 42.12508809 98.22913999 40.62911987 94.82115173 C37.24270604 87.10659224 33.85458028 79.39278757 30.46484375 71.6796875 C27.10580702 64.03615501 23.74970696 56.39134006 20.39697266 48.74504089 C18.45237795 44.31023793 16.50643588 39.8760343 14.55810547 35.44287109 C12.54370499 30.85890297 10.53303646 26.27331438 8.52493286 21.68658447 C7.76277114 19.94737273 6.99933778 18.20871766 6.23458862 16.47064209 C5.18163063 14.07695613 4.13322298 11.68132832 3.0859375 9.28515625 C2.77128036 8.57268234 2.45662323 7.86020844 2.13243103 7.12614441 C0 2.22818191 0 2.22818191 0 0 Z " fill="#FFFFFF" transform="translate(904,810)"/>
<path d="M0 0 C13 0 13 0 17.125 3.625 C18.44669391 5.39463201 19.73536087 7.18915487 21 9 C22.27046618 10.63917868 23.56432216 12.25822387 24.85888672 13.87841797 C26.27890282 15.6612883 27.68018781 17.45759123 29.078125 19.2578125 C32.01717118 23.03347816 35.00414722 26.76934281 38 30.5 C41.84287299 35.28924756 45.65559401 40.0999866 49.4375 44.9375 C53.41929766 50.02908557 57.47320971 55.05692235 61.5625 60.0625 C66.2843033 65.84355405 70.86869193 71.70461388 75.39453125 77.640625 C78.92520014 82.23035648 82.60000266 86.70433432 86.27148438 91.18164062 C90.26778815 96.0626607 94.12307844 101.01538656 98 106 C98.33 71.02 98.66 36.04 99 0 C104.28 0 109.56 0 115 0 C115 44.88 115 89.76 115 136 C101 136 101 136 97.140625 132.95703125 C96.13172415 131.60829011 95.16892954 130.22407787 94.25 128.8125 C93.71890625 128.08289062 93.1878125 127.35328125 92.640625 126.6015625 C91.56450497 125.11931064 90.50615886 123.62397713 89.46679688 122.11572266 C87.41523777 119.15653304 85.21446248 116.33951237 83 113.5 C82.2059375 112.4584375 81.411875 111.416875 80.59375 110.34375 C77.63788937 106.50113119 74.56892193 102.7524869 71.5 99 C66.75144423 93.19376127 62.14146776 87.30893823 57.59375 81.34375 C54.63788799 77.50112939 51.56887436 73.75252788 48.5 70 C44.57387422 65.19823473 40.69810377 60.37014078 36.9375 55.4375 C31.86326949 48.7853582 26.64276683 42.25559933 21.39697266 35.73828125 C19.59428146 33.49515624 17.79770101 31.24712626 16 29 C15.67 64.31 15.34 99.62 15 136 C10.05 136 5.1 136 0 136 C0 91.12 0 46.24 0 0 Z " fill="#FFFFFF" transform="translate(1625,1028)"/>
<path d="M0 0 C19.8063742 -0.66638268 38.06976424 5.99333575 53.0234375 18.77734375 C67.04957522 31.90683339 73.52300722 48.83799813 74.51782227 67.75 C75.16989241 87.51988248 68.4627467 105.54842754 54.921875 120.05078125 C50.21109812 124.35123921 44.97570134 127.79818704 39.58984375 131.1796875 C38.90148438 131.6128125 38.213125 132.0459375 37.50390625 132.4921875 C28.47215032 137.54050522 16.82076996 139.76902205 6.58984375 140.1796875 C5.90277344 140.21964844 5.21570312 140.25960938 4.5078125 140.30078125 C-17.20327198 140.98554644 -35.88990027 132.80686236 -51.5390625 118.19140625 C-64.83298059 104.37717825 -70.08032739 86.39699696 -69.88330078 67.62036133 C-69.28640461 50.87339063 -63.50212932 35.84220543 -52.41015625 23.1796875 C-51.62898438 22.27476563 -51.62898438 22.27476563 -50.83203125 21.3515625 C-37.25683639 6.72198357 -19.24318524 1.43466211 0 0 Z M-42.41015625 34.1796875 C-52.59532466 47.11504104 -55.50053586 62.0584836 -54.41015625 78.1796875 C-52.07616615 94.0030377 -43.75990342 106.44292816 -31.28515625 116.171875 C-19.4379011 124.44563743 -4.13353151 127.81847575 10.1171875 125.640625 C22.09700285 123.46247676 31.34020263 120.28781211 40.58984375 112.1796875 C41.26917969 111.62925781 41.94851563 111.07882812 42.6484375 110.51171875 C51.49050493 102.70381125 57.70229494 89.63681195 58.80517578 77.88525391 C58.92899971 75.41629506 58.96961046 72.96420439 58.96484375 70.4921875 C58.96323242 69.6165918 58.96162109 68.74099609 58.95996094 67.83886719 C58.82121357 60.44172817 57.46532028 54.02511259 54.58984375 47.1796875 C54.13931641 46.0659375 54.13931641 46.0659375 53.6796875 44.9296875 C48.08430206 32.52779423 37.76500217 23.61931316 25.40234375 18.2421875 C23.47687153 17.52168822 21.53993062 16.83062814 19.58984375 16.1796875 C18.86667969 15.93476562 18.14351562 15.68984375 17.3984375 15.4375 C-4.52291683 9.36441132 -27.41881907 17.82114037 -42.41015625 34.1796875 Z " fill="#FFFFFF" transform="translate(1519.41015625,1025.8203125)"/>
<path d="M0 0 C12.98357788 11.2480589 21.22584811 25.56328983 24.24267578 42.58837891 C25.84499487 65.51590753 22.26937371 85.02740852 6.88330078 102.95166016 C-6.41038431 116.22568003 -24.04793874 123.48580002 -42.75732422 124.58837891 C-43.42634766 124.62962891 -44.09537109 124.67087891 -44.78466797 124.71337891 C-65.36792892 125.32666042 -82.83993472 118.6519751 -98.31591797 105.39697266 C-110.50827583 93.90367072 -118.42066035 77.79471054 -119.09326172 60.98681641 C-119.40732936 40.16739292 -116.06453745 22.44832895 -101.05810547 6.86181641 C-100.29884766 6.11158203 -99.53958984 5.36134766 -98.75732422 4.58837891 C-98.07025391 3.87939453 -97.38318359 3.17041016 -96.67529297 2.43994141 C-71.75850326 -21.69097553 -26.40408709 -21.20984045 0 0 Z M-90.94873047 17.24072266 C-101.72934752 31.23456898 -105.41278801 46.12792118 -103.75732422 63.58837891 C-101.40113398 77.38892176 -94.78722568 89.8231101 -83.75732422 98.58837891 C-68.99180966 108.54854849 -53.35659263 112.48557751 -35.69482422 109.58837891 C-20.82568166 106.37867444 -8.43730737 99.30356353 0.29736328 86.60009766 C8.9184228 72.52380337 11.75643108 56.56294664 8.11767578 40.33837891 C3.67846982 25.17109188 -5.40321237 12.92761087 -19.26904297 5.18603516 C-43.31888988 -7.21635227 -72.44591943 -2.77414606 -90.94873047 17.24072266 Z " fill="#FFFFFF" transform="translate(967.75732421875,1041.41162109375)"/>
<path d="M0 0 C4.95 0 9.9 0 15 0 C15.00586624 1.0315773 15.01173248 2.0631546 15.01777649 3.12599182 C15.07530343 12.90770311 15.14821788 22.68919845 15.23571491 32.47068882 C15.28020301 37.49793926 15.319505 42.52511266 15.34643555 47.55249023 C15.3726857 52.41561299 15.41323673 57.27843577 15.46318626 62.14137077 C15.47970964 63.98500742 15.4913134 65.82869578 15.49761391 67.67239571 C15.58470074 91.90727169 15.58470074 91.90727169 26.6640625 112.8671875 C36.30901345 121.71940276 47.58525137 123.46177645 60.28515625 123.24609375 C70.31264152 122.58181239 80.18797131 119.32857414 87.07421875 111.703125 C98.06153205 96.86910034 97.29195549 77.84530861 97.4140625 60.15625 C97.43283013 58.40790959 97.4524074 56.6595777 97.4727478 54.91125488 C97.52348539 50.36754446 97.56341845 45.82380485 97.60089111 41.27996826 C97.64130257 36.6201694 97.69222292 31.96048574 97.7421875 27.30078125 C97.83825302 18.2005948 97.92189896 9.10035837 98 0 C102.95 0 107.9 0 113 0 C113.04560091 9.67686475 113.08211408 19.35365548 113.10362434 29.03060436 C113.11396007 33.52638502 113.12792671 38.02208692 113.15087891 42.51782227 C113.46632125 106.07252366 113.46632125 106.07252366 100 121 C99.34 121 98.68 121 98 121 C98 121.66 98 122.32 98 123 C86.72208925 134.0551372 71.32572279 137.89800657 55.9375 138.375 C39.29735343 137.85570099 24.52460799 133.20495158 13 121 C-0.40856988 106.38318536 -0.29788973 87.85772005 -0.1953125 69.23828125 C-0.19157626 67.23618207 -0.18873218 65.23408104 -0.18673706 63.23197937 C-0.17914872 57.99597 -0.1595421 52.76007391 -0.1373291 47.52410889 C-0.1167666 42.16778088 -0.10771322 36.81143434 -0.09765625 31.45507812 C-0.07629115 20.97000268 -0.042214 10.48501081 0 0 Z " fill="#FFFFFF" transform="translate(1137,1028)"/>
<path d="M0 0 C-0.60745397 4.85963179 -2.72758967 8.7405518 -5 13 C-5.94359375 12.52949219 -6.8871875 12.05898437 -7.859375 11.57421875 C-15.74912256 7.71613633 -23.28684825 4.53690316 -32 3 C-32.86625 2.84660156 -33.7325 2.69320313 -34.625 2.53515625 C-46.01163897 1.02710436 -59.47762808 2.12071991 -69 9 C-74.43720392 13.86845874 -76.66928031 18.58256319 -77.375 25.875 C-77.17403044 31.41752888 -75.30831596 35.70821136 -71.36328125 39.625 C-61.58091325 47.00501829 -48.0385009 49.53653807 -36.375 52.5 C-11.40690215 58.88510812 -11.40690215 58.88510812 -2 68 C-1.49082031 68.47050781 -0.98164062 68.94101563 -0.45703125 69.42578125 C4.76096607 74.8580072 6.13804005 82.21605719 6.375 89.5 C6.05820826 98.87175553 3.09243937 106.83485121 -3 114 C-14.64707065 124.82719404 -30.32373195 128.37930048 -45.83984375 128.14453125 C-61.9934481 127.40573847 -79.09504226 124.4232351 -92 114 C-93.33164936 112.99775864 -94.66455177 111.9971739 -96 111 C-95.39254603 106.14036821 -93.27241033 102.2594482 -91 98 C-88.11192706 99.35720131 -85.63920055 100.93808636 -83.0625 102.8125 C-75.03726304 108.21994962 -65.54516909 111.51856282 -56 113 C-55.19691406 113.1340625 -54.39382813 113.268125 -53.56640625 113.40625 C-42.61445401 114.83830319 -28.58297296 113.96509182 -19 108 C-14.41887015 104.14671321 -11.20183841 99.97708431 -10.1484375 94.0078125 C-9.7930418 89.20061799 -10.3925099 85.32063065 -12.4375 80.875 C-21.62178326 70.5706822 -36.58202678 67.92002819 -49.36865234 64.41235352 C-79.91864331 56.01413987 -79.91864331 56.01413987 -89.5 42.875 C-94.06382958 34.12765998 -94.35690219 24.20390603 -91.875 14.6875 C-88.50735716 4.97798771 -81.10441148 -2.13947267 -72.0625 -6.6875 C-50.25919617 -15.98464469 -19.45007936 -14.18234953 0 0 Z " fill="#FFFFFF" transform="translate(1866,1038)"/>
<path d="M0 0 C-0.6180287 1.79408332 -1.24466081 3.58520478 -1.875 5.375 C-2.22304688 6.37273437 -2.57109375 7.37046875 -2.9296875 8.3984375 C-4 11 -4 11 -6 13 C-6.70382812 12.61328125 -7.40765625 12.2265625 -8.1328125 11.828125 C-24.76387398 3.05665132 -40.63285853 0.42595686 -59 4 C-65.75596524 6.10370934 -71.6136875 9.2839401 -75.3125 15.5 C-77.76004132 20.83464108 -77.77102472 26.25383685 -77 32 C-74.21939738 38.52837138 -68.03523525 42.26553077 -61.67407227 44.99975586 C-52.89555601 48.19123728 -43.91580392 50.59612304 -34.89746094 52.99731445 C-24.05404788 55.89538484 -12.97734611 58.9637017 -4 66 C-4 66.66 -4 67.32 -4 68 C-2.515 68.495 -2.515 68.495 -1 69 C5.37851887 78.85771098 6.70972699 89.43989037 4.41796875 100.9140625 C1.12184741 110.39605541 -5.82999899 117.19391324 -14.5 121.9375 C-25.12739516 126.81414021 -37.32943663 128.97110186 -49 128 C-50.18722656 127.9071875 -51.37445312 127.814375 -52.59765625 127.71875 C-69.27027441 126.15222287 -84.47271244 121.46113543 -97 110 C-95.02 106.04 -93.04 102.08 -91 98 C-89.35 99.0725 -87.7 100.145 -86 101.25 C-68.26217186 112.43743729 -49.66998681 116.06017598 -29 112 C-22.18432475 109.87478258 -16.34242794 106.69497956 -12.6875 100.375 C-10.18126947 94.87152236 -10.17927239 89.67341792 -11.484375 83.83203125 C-14.11960378 76.8809431 -20.62804171 74.03643318 -27 71 C-32.28976295 69.05679901 -37.78246616 67.77265392 -43.25 66.4375 C-51.88059245 64.28636441 -60.3788066 62.02911436 -68.7265625 58.93359375 C-69.38199036 58.69297714 -70.03741821 58.45236053 -70.71270752 58.20445251 C-80.49516566 54.45784203 -88.02191282 47.66524274 -92.3125 38.0625 C-94.6312416 27.73356016 -94.54800169 17.26390444 -89.1796875 7.80078125 C-81.62332898 -3.73392497 -71.17269285 -7.98323221 -58 -11 C-38.74376338 -14.85773091 -16.48076149 -10.49587791 0 0 Z " fill="#FFFFFF" transform="translate(825,1038)"/>
<path d="M0 0 C36.63 0 73.26 0 111 0 C111 3.96 111 7.92 111 12 C110.67 12.33 110.34 12.66 110 13 C94.49 13 78.98 13 63 13 C63 53.59 63 94.18 63 136 C57.72 136 52.44 136 47 136 C47 95.41 47 54.82 47 13 C31.49 13 15.98 13 0 13 C0 8.71 0 4.42 0 0 Z " fill="#FFFFFF" transform="translate(558,1028)"/>
<path d="M0 0 C36.63 0 73.26 0 111 0 C111 4.29 111 8.58 111 13 C95.16 13 79.32 13 63 13 C63 53.59 63 94.18 63 136 C58.05 136 53.1 136 48 136 C48 95.41 48 54.82 48 13 C32.16 13 16.32 13 0 13 C0 8.71 0 4.42 0 0 Z " fill="#FFFFFF" transform="translate(1270,1028)"/>
<path d="M0 0 C5.28 0 10.56 0 16 0 C16 40.59 16 81.18 16 123 C41.08 123 66.16 123 92 123 C92 127.29 92 131.58 92 136 C61.64 136 31.28 136 0 136 C0 91.12 0 46.24 0 0 Z " fill="#FFFFFF" transform="translate(1023,1028)"/>
<path d="M0 0 C5.28 0 10.56 0 16 0 C16 44.88 16 89.76 16 136 C10.72 136 5.44 136 0 136 C0 91.12 0 46.24 0 0 Z " fill="#FFFFFF" transform="translate(1403,1028)"/>
<path d="M0 0 C5.28 0 10.56 0 16 0 C16 44.88 16 89.76 16 136 C10.72 136 5.44 136 0 136 C0 91.12 0 46.24 0 0 Z " fill="#FFFFFF" transform="translate(520,1028)"/>
</svg>
